<svg xmlns="http://www.w3.org/2000/svg" viewBox="0 0 671.91 38.43"><defs><style>.cls-1{fill:#fff;}</style></defs><title>자산 4</title><g id="레이어_2" data-name="레이어 2"><g id="레이어_1-2" data-name="레이어 1"><path class="cls-1" d="M33.79,0Q46.26,1.69,46.27,11.88v15q0,10.2-12.48,11.18-1.24.07-33.68.07L0,36.91l.11-8.15H33.79c.58,0,1.2-.62,1.86-1.87V11.25A1.1,1.1,0,0,0,34.38,10H10.62V26.79H0V.14Z"/><path class="cls-1" d="M59.52.63h9.67q7.31,0,14.52,10.09.38,0,25,26.83a.78.78,0,0,1-.88.88h-11q-.45,0-9.25-9.25H68.77a.78.78,0,0,1-.88-.88v-7c.07-.59.36-.88.88-.88H79.31Q69.89,9,67.43,9H64.37c-.58.1-.88.39-.88.88V37.55a.78.78,0,0,1-.88.88H54.25a.78.78,0,0,1-.88-.88V5.91Q53.37,1.23,59.52.63Z"/><path class="cls-1" d="M162.6,11.85V30.94q0,7.48-5.31,7.49h-4.85q-5.46,0-14.1-11L123.79,12h-.46v25.6a.78.78,0,0,1-.88.88h-8.37c-.42,0-.87-.45-1.33-1.34V8.86q0-8.37,6.18-8.37h2.18q8.13,0,14.59,9.25Q151.53,27,152,27h.42l-.18-25.27,10.23-.14Z"/><path class="cls-1" d="M176.38.11l.28,37c0,.42-.45.87-1.34,1.34h-8.93a.78.78,0,0,1-.87-.88V.32Z"/><path class="cls-1" d="M182.92.11H225c.59.09.88.38.88.87V9c0,.61-.29.91-.88.91H183.13ZM184,14.8h40.53c.61.09.92.4.92.91v7.11a.81.81,0,0,1-.92.91H193.36v5.34H225c.59.1.88.39.88.88v7.6a.78.78,0,0,1-.88.88H189.35q-6.22-.6-6.22-5.35V15.71C183.22,15.11,183.52,14.8,184,14.8Z"/><path class="cls-1" d="M232.8.25h8.51c.61.09.92.38.92.88V29h31.88c.61.1.92.39.92.88v7.63a.82.82,0,0,1-.92.92H238.18c-4.19-.4-6.29-2.2-6.29-5.38V1.13C232,.54,232.29.25,232.8.25Z"/><path class="cls-1" d="M309.52.11l.28,37c0,.42-.45.87-1.34,1.34h-8.93a.78.78,0,0,1-.88-.88V.32Z"/><path class="cls-1" d="M366,11.85V30.94q0,7.48-5.31,7.49h-4.85q-5.46,0-14.1-11L327.16,12h-.45v25.6a.78.78,0,0,1-.88.88h-8.37c-.42,0-.87-.45-1.33-1.34V8.86q0-8.37,6.18-8.37h2.18q8.13,0,14.59,9.25Q354.91,27,355.39,27h.43l-.18-25.27,10.23-.14Z"/><path class="cls-1" d="M402.68,0q12.48,1.69,12.48,11.88v15q0,10.2-12.48,11.18-1.23.07-33.68.07l-.11-1.23.11-8.15h33.68c.59,0,1.21-.62,1.86-1.87V11.25A1.1,1.1,0,0,0,403.28,10H379.51V26.79H368.89V.14Z"/><path class="cls-1" d="M423.14.11h8.93c.59.09.88.38.88.87V26q0,3.12,3.13,3.12h20c1.54,0,2.43-.44,2.67-1.33V1c.09-.58.4-.87.91-.87h8.9c.58.09.88.38.88.87V28.16q0,8.19-10.69,10.27H435.2q-12.94,0-12.94-12.94V1C422.36.4,422.65.11,423.14.11Z"/><path class="cls-1" d="M487.13.11h32c.56.09.85.37.85.84V8.12a.75.75,0,0,1-.85.84H486.7A2.8,2.8,0,0,0,485,11.88v1.27a2.6,2.6,0,0,0,3,3h20.21Q520,17.12,520,25v4.61q-1.56,8.85-11.82,8.86h-32a.75.75,0,0,1-.84-.85V30.41q.13-.84.84-.84h32.42a2.64,2.64,0,0,0,1.68-2.5,2.3,2.3,0,0,0-1.46-2.5,9.31,9.31,0,0,0-3.18-.45H486.28Q475.35,23,475.35,15.26V9Q476.9.11,487.13.11Z"/><path class="cls-1" d="M575.16,9.91H560.88V37.55a.78.78,0,0,1-.88.88h-8.93a.78.78,0,0,1-.87-.88V9.91h-21c-.42,0-.86-.44-1.33-1.33V1.44c0-.42.44-.87,1.33-1.33H575.3Z"/><path class="cls-1" d="M574.7.21h33.78q12.45,1.1,12.45,9.32v6.68q0,6-7.56,8.89a29.62,29.62,0,0,1-5.31.42q14.57,11.56,15.54,11.57v1.34H612q-3.1,0-12.45-8-8.9-6-8.89-8.86V19.3c0-.4.75-1.14,2.25-2.21h14.66c2.06,0,3.09-1,3.09-3.1V12.66a3,3,0,0,0-1.76-3.13H584.47v28a.78.78,0,0,1-.88.88H574.7a.78.78,0,0,1-.88-.88V1.09C573.91.5,574.21.21,574.7.21Z"/><path class="cls-1" d="M630.81.46h7.84c.51.07.77.33.77.77V12.59a2.56,2.56,0,0,0,2.74,2h17.62c1.36,0,2.14-.39,2.35-1.19V1.23c.07-.51.33-.77.78-.77h7.84l.77.38q.39,16.25.39,24.26v4.33q0,7.2-9.39,9H642.16a.69.69,0,0,1-.77-.78V31c.07-.51.33-.77.77-.77h18c1.36,0,2.15-.39,2.36-1.16V22.78H641.39Q630,22.78,630,11.43V1.23C630.11.72,630.36.46,630.81.46Z"/></g></g></svg>